<?xml version="1.0" standalone="no"?>
<!DOCTYPE svg PUBLIC "-//W3C//DTD SVG 20010904//EN"
 "http://www.w3.org/TR/2001/REC-SVG-20010904/DTD/svg10.dtd">
<svg version="1.0" xmlns="http://www.w3.org/2000/svg"
 width="128.000000pt" height="128.000000pt" viewBox="0 0 128.000000 128.000000"
 preserveAspectRatio="xMidYMid meet">

<g transform="translate(0.000000,128.000000) scale(0.100000,-0.100000)"
fill="#000000" stroke="none">
<path d="M0 640 l0 -640 640 0 640 0 0 640 0 640 -640 0 -640 0 0 -640z m792
348 c76 -35 122 -73 162 -133 169 -255 -8 -595 -309 -595 -311 0 -490 336
-319 595 48 72 114 120 209 152 65 21 189 12 257 -19z"/>
<path d="M529 974 c-147 -51 -249 -206 -236 -361 10 -126 87 -236 206 -292 81
-37 201 -37 282 0 79 37 133 90 171 167 29 59 33 76 33 152 0 76 -3 93 -33
152 -37 75 -96 133 -170 169 -62 29 -187 36 -253 13z m167 -5 c115 -21 202
-89 252 -198 20 -44 26 -71 26 -132 0 -66 -5 -86 -32 -142 -102 -206 -360
-256 -531 -102 -22 20 -55 66 -73 102 -59 120 -39 263 52 366 53 61 135 101
241 116 3 1 32 -4 65 -10z"/>
<path d="M522 929 c-71 -28 -144 -101 -171 -174 -76 -203 59 -412 274 -423
176 -9 314 116 323 293 12 228 -211 386 -426 304z m262 -125 c23 -9 21 -20
-29 -131 -25 -55 -48 -115 -52 -134 l-6 -34 33 28 c42 36 49 28 15 -17 -27
-36 -56 -45 -84 -27 -23 15 -7 84 43 189 40 82 43 93 24 80 -43 -28 -147 -162
-175 -225 -28 -62 -56 -82 -69 -49 -9 23 138 317 156 313 16 -3 18 -18 5 -57
-7 -21 0 -18 43 23 51 46 65 53 96 41z"/>
</g>
</svg>
